<svg width="17" height="17" viewBox="0 0 17 17" fill="none" xmlns="http://www.w3.org/2000/svg">
<g clip-path="url(#clip0_24_55)">
<path d="M11.9356 0H5.06439C2.27187 0 0 2.27187 0 5.06439V11.9356C0 14.7281 2.27187 17 5.06439 17H11.9356C14.7281 17 17 14.7281 17 11.9356V5.06439C17 2.27187 14.7281 0 11.9356 0ZM15.2898 11.9356C15.2898 13.7881 13.7881 15.2898 11.9356 15.2898H5.06439C3.21194 15.2898 1.7102 13.7881 1.7102 11.9356V5.06439C1.7102 3.21191 3.21194 1.7102 5.06439 1.7102H11.9356C13.7881 1.7102 15.2898 3.21191 15.2898 5.06439V11.9356Z" fill="#252525"/>
<path d="M8.49995 4.1032C6.07555 4.1032 4.10315 6.0756 4.10315 8.49997C4.10315 10.9243 6.07555 12.8968 8.49995 12.8968C10.9244 12.8968 12.8968 10.9244 12.8968 8.49997C12.8968 6.07557 10.9244 4.1032 8.49995 4.1032ZM8.49995 11.1866C7.01617 11.1866 5.81335 9.98378 5.81335 8.5C5.81335 7.01622 7.0162 5.81339 8.49995 5.81339C9.98374 5.81339 11.1866 7.01622 11.1866 8.5C11.1866 9.98375 9.98371 11.1866 8.49995 11.1866Z" fill="#252525"/>
<path d="M12.9054 5.18977C13.4872 5.18977 13.9589 4.71807 13.9589 4.13621C13.9589 3.55434 13.4872 3.08264 12.9054 3.08264C12.3235 3.08264 11.8518 3.55434 11.8518 4.13621C11.8518 4.71807 12.3235 5.18977 12.9054 5.18977Z" fill="#252525"/>
</g>
<defs>
<clipPath id="clip0_24_55">
<rect width="17" height="17" fill="white"/>
</clipPath>
</defs>
</svg>
